<mxfile host="app.diagrams.net" modified="2023-10-03T15:22:45.980Z" agent="Mozilla/5.0 (Windows NT 10.0; Win64; x64) AppleWebKit/537.36 (KHTML, like Gecko) Chrome/117.0.0.0 Safari/537.36" etag="nEW2ChYpd_V9fmrkI-IT" version="22.0.2" type="device">
  <diagram id="C5RBs43oDa-KdzZeNtuy" name="Page-1">
    <mxGraphModel dx="1250" dy="1780" grid="1" gridSize="10" guides="1" tooltips="1" connect="1" arrows="1" fold="1" page="1" pageScale="1" pageWidth="827" pageHeight="1169" math="0" shadow="0">
      <root>
        <mxCell id="WIyWlLk6GJQsqaUBKTNV-0" />
        <mxCell id="WIyWlLk6GJQsqaUBKTNV-1" parent="WIyWlLk6GJQsqaUBKTNV-0" />
        <mxCell id="zkfFHV4jXpPFQw0GAbJ--0" value="Customer " style="swimlane;fontStyle=2;align=center;verticalAlign=top;childLayout=stackLayout;horizontal=1;startSize=26;horizontalStack=0;resizeParent=1;resizeLast=0;collapsible=1;marginBottom=0;rounded=0;shadow=0;strokeWidth=1;" parent="WIyWlLk6GJQsqaUBKTNV-1" vertex="1">
          <mxGeometry x="160" y="119" width="230" height="202" as="geometry">
            <mxRectangle x="230" y="140" width="160" height="26" as="alternateBounds" />
          </mxGeometry>
        </mxCell>
        <mxCell id="zkfFHV4jXpPFQw0GAbJ--1" value="public Integer Customer_ID;&#xa;public Integer Customer_PhoneNumber;&#xa;public String Customer_Name;&#xa;public String Customer_Email;" style="text;align=left;verticalAlign=top;spacingLeft=4;spacingRight=4;overflow=hidden;rotatable=0;points=[[0,0.5],[1,0.5]];portConstraint=eastwest;" parent="zkfFHV4jXpPFQw0GAbJ--0" vertex="1">
          <mxGeometry y="26" width="230" height="84" as="geometry" />
        </mxCell>
        <mxCell id="zkfFHV4jXpPFQw0GAbJ--4" value="" style="line;html=1;strokeWidth=1;align=left;verticalAlign=middle;spacingTop=-1;spacingLeft=3;spacingRight=3;rotatable=0;labelPosition=right;points=[];portConstraint=eastwest;" parent="zkfFHV4jXpPFQw0GAbJ--0" vertex="1">
          <mxGeometry y="110" width="230" height="8" as="geometry" />
        </mxCell>
        <mxCell id="vnvh8lZ42g3h_OQ8niRZ-28" value="void Register_Customer(){}&#xa;void Login_Customer(){}" style="text;align=left;verticalAlign=top;spacingLeft=4;spacingRight=4;overflow=hidden;rotatable=0;points=[[0,0.5],[1,0.5]];portConstraint=eastwest;" vertex="1" parent="zkfFHV4jXpPFQw0GAbJ--0">
          <mxGeometry y="118" width="230" height="52" as="geometry" />
        </mxCell>
        <mxCell id="vnvh8lZ42g3h_OQ8niRZ-33" style="rounded=0;orthogonalLoop=1;jettySize=auto;html=1;exitX=0.5;exitY=1;exitDx=0;exitDy=0;" edge="1" parent="WIyWlLk6GJQsqaUBKTNV-1" source="zkfFHV4jXpPFQw0GAbJ--17">
          <mxGeometry relative="1" as="geometry">
            <mxPoint x="590" y="440" as="targetPoint" />
          </mxGeometry>
        </mxCell>
        <mxCell id="zkfFHV4jXpPFQw0GAbJ--17" value="Destination " style="swimlane;fontStyle=0;align=center;verticalAlign=top;childLayout=stackLayout;horizontal=1;startSize=26;horizontalStack=0;resizeParent=1;resizeLast=0;collapsible=1;marginBottom=0;rounded=0;shadow=0;strokeWidth=1;" parent="WIyWlLk6GJQsqaUBKTNV-1" vertex="1">
          <mxGeometry x="510" y="100" width="160" height="240" as="geometry">
            <mxRectangle x="550" y="140" width="160" height="26" as="alternateBounds" />
          </mxGeometry>
        </mxCell>
        <mxCell id="zkfFHV4jXpPFQw0GAbJ--22" value="public Integer Dest_ID;&#xa;public String Dest_Name;&#xa;public String Location;&#xa;public Integer Price;&#xa;public  Integer Rating;" style="text;align=left;verticalAlign=top;spacingLeft=4;spacingRight=4;overflow=hidden;rotatable=0;points=[[0,0.5],[1,0.5]];portConstraint=eastwest;rounded=0;shadow=0;html=0;" parent="zkfFHV4jXpPFQw0GAbJ--17" vertex="1">
          <mxGeometry y="26" width="160" height="94" as="geometry" />
        </mxCell>
        <mxCell id="zkfFHV4jXpPFQw0GAbJ--23" value="" style="line;html=1;strokeWidth=1;align=left;verticalAlign=middle;spacingTop=-1;spacingLeft=3;spacingRight=3;rotatable=0;labelPosition=right;points=[];portConstraint=eastwest;" parent="zkfFHV4jXpPFQw0GAbJ--17" vertex="1">
          <mxGeometry y="120" width="160" height="8" as="geometry" />
        </mxCell>
        <mxCell id="zkfFHV4jXpPFQw0GAbJ--25" value="void  DestinationDetail(){}&#xa;&#xa;void searchDestionation(){}&#xa;&#xa;void Update(){}&#xa;void Delete(){}" style="text;align=left;verticalAlign=top;spacingLeft=4;spacingRight=4;overflow=hidden;rotatable=0;points=[[0,0.5],[1,0.5]];portConstraint=eastwest;" parent="zkfFHV4jXpPFQw0GAbJ--17" vertex="1">
          <mxGeometry y="128" width="160" height="102" as="geometry" />
        </mxCell>
        <mxCell id="zkfFHV4jXpPFQw0GAbJ--26" value="" style="endArrow=open;shadow=0;strokeWidth=1;rounded=0;endFill=1;edgeStyle=elbowEdgeStyle;elbow=vertical;" parent="WIyWlLk6GJQsqaUBKTNV-1" source="zkfFHV4jXpPFQw0GAbJ--0" target="zkfFHV4jXpPFQw0GAbJ--17" edge="1">
          <mxGeometry x="0.5" y="41" relative="1" as="geometry">
            <mxPoint x="380" y="192" as="sourcePoint" />
            <mxPoint x="540" y="192" as="targetPoint" />
            <mxPoint x="-40" y="32" as="offset" />
          </mxGeometry>
        </mxCell>
        <mxCell id="zkfFHV4jXpPFQw0GAbJ--27" value="0..1" style="resizable=0;align=left;verticalAlign=bottom;labelBackgroundColor=none;fontSize=12;" parent="zkfFHV4jXpPFQw0GAbJ--26" connectable="0" vertex="1">
          <mxGeometry x="-1" relative="1" as="geometry">
            <mxPoint y="4" as="offset" />
          </mxGeometry>
        </mxCell>
        <mxCell id="zkfFHV4jXpPFQw0GAbJ--28" value="1" style="resizable=0;align=right;verticalAlign=bottom;labelBackgroundColor=none;fontSize=12;" parent="zkfFHV4jXpPFQw0GAbJ--26" connectable="0" vertex="1">
          <mxGeometry x="1" relative="1" as="geometry">
            <mxPoint x="-7" y="4" as="offset" />
          </mxGeometry>
        </mxCell>
        <mxCell id="vnvh8lZ42g3h_OQ8niRZ-2" value="Tour Package" style="swimlane;fontStyle=0;align=center;verticalAlign=top;childLayout=stackLayout;horizontal=1;startSize=26;horizontalStack=0;resizeParent=1;resizeLast=0;collapsible=1;marginBottom=0;rounded=0;shadow=0;strokeWidth=1;" vertex="1" parent="WIyWlLk6GJQsqaUBKTNV-1">
          <mxGeometry x="790" y="100" width="190" height="190" as="geometry">
            <mxRectangle x="550" y="140" width="160" height="26" as="alternateBounds" />
          </mxGeometry>
        </mxCell>
        <mxCell id="vnvh8lZ42g3h_OQ8niRZ-3" value="public Integer Pkg_Id;&#xa;public Integer Pkg_Price;&#xa;public  Integer Pkg_Dureation;&#xa;public String Pkg_Name;&#xa;public String Pkg_Description;&#xa;public String Pkg_Detination;" style="text;align=left;verticalAlign=top;spacingLeft=4;spacingRight=4;overflow=hidden;rotatable=0;points=[[0,0.5],[1,0.5]];portConstraint=eastwest;rounded=0;shadow=0;html=0;" vertex="1" parent="vnvh8lZ42g3h_OQ8niRZ-2">
          <mxGeometry y="26" width="190" height="74" as="geometry" />
        </mxCell>
        <mxCell id="vnvh8lZ42g3h_OQ8niRZ-4" value="" style="line;html=1;strokeWidth=1;align=left;verticalAlign=middle;spacingTop=-1;spacingLeft=3;spacingRight=3;rotatable=0;labelPosition=right;points=[];portConstraint=eastwest;" vertex="1" parent="vnvh8lZ42g3h_OQ8niRZ-2">
          <mxGeometry y="100" width="190" height="8" as="geometry" />
        </mxCell>
        <mxCell id="vnvh8lZ42g3h_OQ8niRZ-5" value="void Create_package(){}&#xa;void View_Available_package(){}&#xa;void  View_Package_Details(){}" style="text;align=left;verticalAlign=top;spacingLeft=4;spacingRight=4;overflow=hidden;rotatable=0;points=[[0,0.5],[1,0.5]];portConstraint=eastwest;" vertex="1" parent="vnvh8lZ42g3h_OQ8niRZ-2">
          <mxGeometry y="108" width="190" height="82" as="geometry" />
        </mxCell>
        <mxCell id="vnvh8lZ42g3h_OQ8niRZ-17" value="" style="orthogonalLoop=1;jettySize=auto;html=1;rounded=0;entryX=-0.019;entryY=0.423;entryDx=0;entryDy=0;entryPerimeter=0;exitX=1.028;exitY=0.724;exitDx=0;exitDy=0;exitPerimeter=0;" edge="1" parent="WIyWlLk6GJQsqaUBKTNV-1" source="zkfFHV4jXpPFQw0GAbJ--22">
          <mxGeometry width="100" relative="1" as="geometry">
            <mxPoint x="670" y="220" as="sourcePoint" />
            <mxPoint x="786.3899999999999" y="192.68599999999992" as="targetPoint" />
          </mxGeometry>
        </mxCell>
        <mxCell id="vnvh8lZ42g3h_OQ8niRZ-18" value="Extends" style="text;html=1;align=center;verticalAlign=middle;resizable=0;points=[];autosize=1;strokeColor=none;fillColor=none;" vertex="1" parent="WIyWlLk6GJQsqaUBKTNV-1">
          <mxGeometry x="700" y="150" width="70" height="30" as="geometry" />
        </mxCell>
        <mxCell id="vnvh8lZ42g3h_OQ8niRZ-19" value="Tour Guide" style="swimlane;fontStyle=0;align=center;verticalAlign=top;childLayout=stackLayout;horizontal=1;startSize=26;horizontalStack=0;resizeParent=1;resizeLast=0;collapsible=1;marginBottom=0;rounded=0;shadow=0;strokeWidth=1;" vertex="1" parent="WIyWlLk6GJQsqaUBKTNV-1">
          <mxGeometry x="790" y="-220" width="190" height="190" as="geometry">
            <mxRectangle x="550" y="140" width="160" height="26" as="alternateBounds" />
          </mxGeometry>
        </mxCell>
        <mxCell id="vnvh8lZ42g3h_OQ8niRZ-20" value="public Integer Guide_ID;&#xa;public Integer Guide_Contact_No;//Or Declare Methods&#xa;public String Guide_Name;&#xa;public String Guide_Specialization;&#xa;public String Guide_Information;&#xa;" style="text;align=left;verticalAlign=top;spacingLeft=4;spacingRight=4;overflow=hidden;rotatable=0;points=[[0,0.5],[1,0.5]];portConstraint=eastwest;rounded=0;shadow=0;html=0;" vertex="1" parent="vnvh8lZ42g3h_OQ8niRZ-19">
          <mxGeometry y="26" width="190" height="74" as="geometry" />
        </mxCell>
        <mxCell id="vnvh8lZ42g3h_OQ8niRZ-21" value="" style="line;html=1;strokeWidth=1;align=left;verticalAlign=middle;spacingTop=-1;spacingLeft=3;spacingRight=3;rotatable=0;labelPosition=right;points=[];portConstraint=eastwest;" vertex="1" parent="vnvh8lZ42g3h_OQ8niRZ-19">
          <mxGeometry y="100" width="190" height="8" as="geometry" />
        </mxCell>
        <mxCell id="vnvh8lZ42g3h_OQ8niRZ-22" value="void Assign_Guide_to_Tour(){}&#xa;void View_Available_Guide(){}" style="text;align=left;verticalAlign=top;spacingLeft=4;spacingRight=4;overflow=hidden;rotatable=0;points=[[0,0.5],[1,0.5]];portConstraint=eastwest;" vertex="1" parent="vnvh8lZ42g3h_OQ8niRZ-19">
          <mxGeometry y="108" width="190" height="62" as="geometry" />
        </mxCell>
        <mxCell id="vnvh8lZ42g3h_OQ8niRZ-25" style="rounded=0;orthogonalLoop=1;jettySize=auto;html=1;exitX=0.468;exitY=-0.012;exitDx=0;exitDy=0;exitPerimeter=0;" edge="1" parent="WIyWlLk6GJQsqaUBKTNV-1" source="vnvh8lZ42g3h_OQ8niRZ-2">
          <mxGeometry relative="1" as="geometry">
            <mxPoint x="879" y="-20" as="targetPoint" />
          </mxGeometry>
        </mxCell>
        <mxCell id="vnvh8lZ42g3h_OQ8niRZ-26" value="Extends&amp;nbsp;" style="text;html=1;align=center;verticalAlign=middle;resizable=0;points=[];autosize=1;strokeColor=none;fillColor=none;" vertex="1" parent="WIyWlLk6GJQsqaUBKTNV-1">
          <mxGeometry x="880" y="28" width="70" height="30" as="geometry" />
        </mxCell>
        <mxCell id="vnvh8lZ42g3h_OQ8niRZ-29" value="Hotel" style="swimlane;fontStyle=0;align=center;verticalAlign=top;childLayout=stackLayout;horizontal=1;startSize=26;horizontalStack=0;resizeParent=1;resizeLast=0;collapsible=1;marginBottom=0;rounded=0;shadow=0;strokeWidth=1;" vertex="1" parent="WIyWlLk6GJQsqaUBKTNV-1">
          <mxGeometry x="520" y="450" width="160" height="250" as="geometry">
            <mxRectangle x="550" y="140" width="160" height="26" as="alternateBounds" />
          </mxGeometry>
        </mxCell>
        <mxCell id="vnvh8lZ42g3h_OQ8niRZ-30" value="Integer Hotel_Id;&#xa;Integer Price_per_Night;&#xa;&#xa;Integer Availability;&#xa;String Hotel_Name;&#xa;String Location;" style="text;align=left;verticalAlign=top;spacingLeft=4;spacingRight=4;overflow=hidden;rotatable=0;points=[[0,0.5],[1,0.5]];portConstraint=eastwest;rounded=0;shadow=0;html=0;" vertex="1" parent="vnvh8lZ42g3h_OQ8niRZ-29">
          <mxGeometry y="26" width="160" height="94" as="geometry" />
        </mxCell>
        <mxCell id="vnvh8lZ42g3h_OQ8niRZ-31" value="" style="line;html=1;strokeWidth=1;align=left;verticalAlign=middle;spacingTop=-1;spacingLeft=3;spacingRight=3;rotatable=0;labelPosition=right;points=[];portConstraint=eastwest;" vertex="1" parent="vnvh8lZ42g3h_OQ8niRZ-29">
          <mxGeometry y="120" width="160" height="8" as="geometry" />
        </mxCell>
        <mxCell id="vnvh8lZ42g3h_OQ8niRZ-32" value="void checkAvailabilti(){}&#xa;void GetHotelDetails(){}&#xa;&#xa;void BookRoom(){}&#xa;&#xa;void CancelBooking(){}&#xa;&#xa;void contactDetails(){}" style="text;align=left;verticalAlign=top;spacingLeft=4;spacingRight=4;overflow=hidden;rotatable=0;points=[[0,0.5],[1,0.5]];portConstraint=eastwest;" vertex="1" parent="vnvh8lZ42g3h_OQ8niRZ-29">
          <mxGeometry y="128" width="160" height="122" as="geometry" />
        </mxCell>
        <mxCell id="vnvh8lZ42g3h_OQ8niRZ-34" value="Extends" style="text;html=1;align=center;verticalAlign=middle;resizable=0;points=[];autosize=1;strokeColor=none;fillColor=none;" vertex="1" parent="WIyWlLk6GJQsqaUBKTNV-1">
          <mxGeometry x="590" y="380" width="70" height="30" as="geometry" />
        </mxCell>
        <mxCell id="vnvh8lZ42g3h_OQ8niRZ-35" value="Review And Ratings" style="swimlane;fontStyle=0;align=center;verticalAlign=top;childLayout=stackLayout;horizontal=1;startSize=26;horizontalStack=0;resizeParent=1;resizeLast=0;collapsible=1;marginBottom=0;rounded=0;shadow=0;strokeWidth=1;" vertex="1" parent="WIyWlLk6GJQsqaUBKTNV-1">
          <mxGeometry x="880" y="460" width="193" height="230" as="geometry">
            <mxRectangle x="550" y="140" width="160" height="26" as="alternateBounds" />
          </mxGeometry>
        </mxCell>
        <mxCell id="vnvh8lZ42g3h_OQ8niRZ-36" value="public Integer Review_ID;&#xa;public Integer Rating;&#xa;public Integer total_Travelers;&#xa;public Date Review_Date;&#xa;public String Customer_Name;&#xa;public String Review_Text;&#xa;public String Review_Description;&#xa;public Integer Detination_ID;" style="text;align=left;verticalAlign=top;spacingLeft=4;spacingRight=4;overflow=hidden;rotatable=0;points=[[0,0.5],[1,0.5]];portConstraint=eastwest;rounded=0;shadow=0;html=0;" vertex="1" parent="vnvh8lZ42g3h_OQ8niRZ-35">
          <mxGeometry y="26" width="193" height="134" as="geometry" />
        </mxCell>
        <mxCell id="vnvh8lZ42g3h_OQ8niRZ-37" value="" style="line;html=1;strokeWidth=1;align=left;verticalAlign=middle;spacingTop=-1;spacingLeft=3;spacingRight=3;rotatable=0;labelPosition=right;points=[];portConstraint=eastwest;" vertex="1" parent="vnvh8lZ42g3h_OQ8niRZ-35">
          <mxGeometry y="160" width="193" height="8" as="geometry" />
        </mxCell>
        <mxCell id="vnvh8lZ42g3h_OQ8niRZ-38" value="void submit_Review(){}&#xa;void view_Review(){}" style="text;align=left;verticalAlign=top;spacingLeft=4;spacingRight=4;overflow=hidden;rotatable=0;points=[[0,0.5],[1,0.5]];portConstraint=eastwest;" vertex="1" parent="vnvh8lZ42g3h_OQ8niRZ-35">
          <mxGeometry y="168" width="193" height="52" as="geometry" />
        </mxCell>
        <mxCell id="vnvh8lZ42g3h_OQ8niRZ-39" style="rounded=0;orthogonalLoop=1;jettySize=auto;html=1;entryX=0;entryY=0.5;entryDx=0;entryDy=0;" edge="1" parent="WIyWlLk6GJQsqaUBKTNV-1" source="vnvh8lZ42g3h_OQ8niRZ-31" target="vnvh8lZ42g3h_OQ8niRZ-35">
          <mxGeometry relative="1" as="geometry" />
        </mxCell>
        <mxCell id="vnvh8lZ42g3h_OQ8niRZ-40" value="Extends" style="text;html=1;align=center;verticalAlign=middle;resizable=0;points=[];autosize=1;strokeColor=none;fillColor=none;" vertex="1" parent="WIyWlLk6GJQsqaUBKTNV-1">
          <mxGeometry x="695" y="538" width="70" height="30" as="geometry" />
        </mxCell>
        <mxCell id="vnvh8lZ42g3h_OQ8niRZ-41" value="User" style="swimlane;fontStyle=0;align=center;verticalAlign=top;childLayout=stackLayout;horizontal=1;startSize=26;horizontalStack=0;resizeParent=1;resizeLast=0;collapsible=1;marginBottom=0;rounded=0;shadow=0;strokeWidth=1;" vertex="1" parent="WIyWlLk6GJQsqaUBKTNV-1">
          <mxGeometry x="110" y="-230" width="193" height="290" as="geometry">
            <mxRectangle x="550" y="140" width="160" height="26" as="alternateBounds" />
          </mxGeometry>
        </mxCell>
        <mxCell id="vnvh8lZ42g3h_OQ8niRZ-42" value="private Integer ID;&#xa;private Object password;&#xa;public String Name;&#xa;public String EmailId;&#xa;public String PhoneNo;&#xa;" style="text;align=left;verticalAlign=top;spacingLeft=4;spacingRight=4;overflow=hidden;rotatable=0;points=[[0,0.5],[1,0.5]];portConstraint=eastwest;rounded=0;shadow=0;html=0;" vertex="1" parent="vnvh8lZ42g3h_OQ8niRZ-41">
          <mxGeometry y="26" width="193" height="94" as="geometry" />
        </mxCell>
        <mxCell id="vnvh8lZ42g3h_OQ8niRZ-43" value="" style="line;html=1;strokeWidth=1;align=left;verticalAlign=middle;spacingTop=-1;spacingLeft=3;spacingRight=3;rotatable=0;labelPosition=right;points=[];portConstraint=eastwest;" vertex="1" parent="vnvh8lZ42g3h_OQ8niRZ-41">
          <mxGeometry y="120" width="193" height="8" as="geometry" />
        </mxCell>
        <mxCell id="vnvh8lZ42g3h_OQ8niRZ-44" value=" public Integer getID() &#xa; public void setID(Integer ID) &#xa;public Object getPassword()&#xa;public void setPassword(Object password) {&#xa;public void setName(String name) &#xa;public void setEmailId(String emailId) &#xa;public void setPhoneNo(String phoneNo) &#xa;boolean Registration()&#xa;void  Login()&#xa;void  UpdateProfile()" style="text;align=left;verticalAlign=top;spacingLeft=4;spacingRight=4;overflow=hidden;rotatable=0;points=[[0,0.5],[1,0.5]];portConstraint=eastwest;" vertex="1" parent="vnvh8lZ42g3h_OQ8niRZ-41">
          <mxGeometry y="128" width="193" height="152" as="geometry" />
        </mxCell>
        <mxCell id="vnvh8lZ42g3h_OQ8niRZ-45" value="Payment" style="swimlane;fontStyle=0;align=center;verticalAlign=top;childLayout=stackLayout;horizontal=1;startSize=26;horizontalStack=0;resizeParent=1;resizeLast=0;collapsible=1;marginBottom=0;rounded=0;shadow=0;strokeWidth=1;" vertex="1" parent="WIyWlLk6GJQsqaUBKTNV-1">
          <mxGeometry x="430" y="-240" width="190" height="210" as="geometry">
            <mxRectangle x="550" y="140" width="160" height="26" as="alternateBounds" />
          </mxGeometry>
        </mxCell>
        <mxCell id="vnvh8lZ42g3h_OQ8niRZ-46" value="public Integer Payment_ID;&#xa;public Integer Payment_Amount;&#xa;public Integer total_Travelers;&#xa;public String Customer_Name;&#xa;public String Payment_Method; &#xa;public String Payment_Stauts;" style="text;align=left;verticalAlign=top;spacingLeft=4;spacingRight=4;overflow=hidden;rotatable=0;points=[[0,0.5],[1,0.5]];portConstraint=eastwest;rounded=0;shadow=0;html=0;" vertex="1" parent="vnvh8lZ42g3h_OQ8niRZ-45">
          <mxGeometry y="26" width="190" height="114" as="geometry" />
        </mxCell>
        <mxCell id="vnvh8lZ42g3h_OQ8niRZ-47" value="" style="line;html=1;strokeWidth=1;align=left;verticalAlign=middle;spacingTop=-1;spacingLeft=3;spacingRight=3;rotatable=0;labelPosition=right;points=[];portConstraint=eastwest;" vertex="1" parent="vnvh8lZ42g3h_OQ8niRZ-45">
          <mxGeometry y="140" width="190" height="8" as="geometry" />
        </mxCell>
        <mxCell id="vnvh8lZ42g3h_OQ8niRZ-48" value="void make_Paymend(){}&#xa;void view_payment_Historh(){}" style="text;align=left;verticalAlign=top;spacingLeft=4;spacingRight=4;overflow=hidden;rotatable=0;points=[[0,0.5],[1,0.5]];portConstraint=eastwest;" vertex="1" parent="vnvh8lZ42g3h_OQ8niRZ-45">
          <mxGeometry y="148" width="190" height="62" as="geometry" />
        </mxCell>
        <mxCell id="vnvh8lZ42g3h_OQ8niRZ-49" value="Booking" style="swimlane;fontStyle=0;align=center;verticalAlign=top;childLayout=stackLayout;horizontal=1;startSize=26;horizontalStack=0;resizeParent=1;resizeLast=0;collapsible=1;marginBottom=0;rounded=0;shadow=0;strokeWidth=1;" vertex="1" parent="WIyWlLk6GJQsqaUBKTNV-1">
          <mxGeometry x="1190" y="200" width="190" height="242" as="geometry">
            <mxRectangle x="550" y="140" width="160" height="26" as="alternateBounds" />
          </mxGeometry>
        </mxCell>
        <mxCell id="vnvh8lZ42g3h_OQ8niRZ-51" value="" style="line;html=1;strokeWidth=1;align=left;verticalAlign=middle;spacingTop=-1;spacingLeft=3;spacingRight=3;rotatable=0;labelPosition=right;points=[];portConstraint=eastwest;" vertex="1" parent="vnvh8lZ42g3h_OQ8niRZ-49">
          <mxGeometry y="26" width="190" height="8" as="geometry" />
        </mxCell>
        <mxCell id="vnvh8lZ42g3h_OQ8niRZ-50" value="public Integer Booking_ID;&#xa;public Integer Pkg_Price;&#xa;public Integer total_Travelers;&#xa;public Date BookDate;&#xa;public String Customer_Name;&#xa;public String Pkg_Name;&#xa;public String Pkg_Description;&#xa;public String Pkg_Detination;" style="text;align=left;verticalAlign=top;spacingLeft=4;spacingRight=4;overflow=hidden;rotatable=0;points=[[0,0.5],[1,0.5]];portConstraint=eastwest;rounded=0;shadow=0;html=0;" vertex="1" parent="vnvh8lZ42g3h_OQ8niRZ-49">
          <mxGeometry y="34" width="190" height="146" as="geometry" />
        </mxCell>
        <mxCell id="vnvh8lZ42g3h_OQ8niRZ-52" value="void BookPackage(){}&#xa;void  ViewBookings(){}&#xa;void CancelBooking(){}" style="text;align=left;verticalAlign=top;spacingLeft=4;spacingRight=4;overflow=hidden;rotatable=0;points=[[0,0.5],[1,0.5]];portConstraint=eastwest;" vertex="1" parent="vnvh8lZ42g3h_OQ8niRZ-49">
          <mxGeometry y="180" width="190" height="62" as="geometry" />
        </mxCell>
        <mxCell id="vnvh8lZ42g3h_OQ8niRZ-53" style="rounded=0;orthogonalLoop=1;jettySize=auto;html=1;entryX=1.063;entryY=0.706;entryDx=0;entryDy=0;entryPerimeter=0;" edge="1" parent="WIyWlLk6GJQsqaUBKTNV-1">
          <mxGeometry relative="1" as="geometry">
            <mxPoint x="1190" y="360" as="sourcePoint" />
            <mxPoint x="669.9999999999999" y="310.0020000000002" as="targetPoint" />
          </mxGeometry>
        </mxCell>
        <mxCell id="vnvh8lZ42g3h_OQ8niRZ-54" style="rounded=0;orthogonalLoop=1;jettySize=auto;html=1;entryX=1;entryY=0.5;entryDx=0;entryDy=0;" edge="1" parent="WIyWlLk6GJQsqaUBKTNV-1">
          <mxGeometry relative="1" as="geometry">
            <mxPoint x="1190" y="365.58677685950397" as="sourcePoint" />
            <mxPoint x="680" y="460" as="targetPoint" />
          </mxGeometry>
        </mxCell>
      </root>
    </mxGraphModel>
  </diagram>
</mxfile>
